<!-- Generated by IcoMoon.io -->
<svg version="1.1" xmlns="http://www.w3.org/2000/svg" width="640" height="640" viewBox="0 0 640 640">
<title></title>
<g id="icomoon-ignore">
</g>
<path d="M320 640c-4.91 0-9.548-2.254-12.581-6.115-1.832-2.331-45.367-58.040-89.518-140.319-25.988-48.432-46.714-95.98-61.603-141.324-18.777-57.187-28.298-111.099-28.298-160.242 0-105.869 86.131-192 192-192s192 86.131 192 192c0 49.143-9.521 103.055-28.299 160.241-14.889 45.344-35.615 92.893-61.603 141.324-44.15 82.279-87.686 137.988-89.518 140.319-3.032 3.862-7.67 6.116-12.58 6.116zM320 32c-88.224 0-160 71.776-160 160 0 104.123 46.821 213.235 86.099 286.435 28.866 53.796 57.896 96.441 73.898 118.711 16.068-22.368 45.268-65.27 74.18-119.225 39.152-73.064 85.823-181.977 85.823-285.921 0-88.224-71.775-160-160-160z"></path>
<path d="M320 288c-52.935 0-96-43.065-96-96s43.065-96 96-96 96 43.065 96 96-43.065 96-96 96zM320 128c-35.29 0-64 28.71-64 64s28.71 64 64 64c35.29 0 64-28.71 64-64s-28.71-64-64-64z"></path>
</svg>
