<!-- Generated by IcoMoon.io -->
<svg version="1.1" xmlns="http://www.w3.org/2000/svg" width="640" height="640" viewBox="0 0 640 640">
<title></title>
<g id="icomoon-ignore">
</g>
<path d="M512 640c-56.682 0-116.971-16.062-179.191-47.741-57.371-29.21-114.050-71.034-163.911-120.951-49.852-49.908-91.622-106.64-120.795-164.061-31.63-62.256-47.668-122.564-47.668-179.247 0-36.734 34.228-72.219 48.944-85.77 21.156-19.481 54.44-42.23 78.621-42.23 12.028 0 26.127 7.868 44.371 24.76 13.614 12.606 28.919 29.694 44.259 49.417 9.246 11.888 55.37 72.667 55.37 101.823 0 23.919-27.031 40.533-55.648 58.124-11.059 6.797-22.495 13.826-30.766 20.456-8.821 7.072-10.403 10.805-10.663 11.643 30.376 75.705 123.213 168.532 198.877 198.865 0.678-0.213 4.417-1.687 11.62-10.672 6.63-8.271 13.659-19.707 20.456-30.767 17.59-28.618 34.204-55.649 58.124-55.649 29.155 0 89.935 46.124 101.823 55.37 19.723 15.341 36.811 30.645 49.417 44.26 16.893 18.243 24.76 32.342 24.76 44.37 0 24.188-22.736 57.572-42.205 78.812-13.558 14.789-49.057 49.188-85.795 49.188zM127.798 32.002c-8.582 0.164-31.646 10.659-56.743 33.768-23.822 21.937-38.62 45.781-38.62 62.23 0 215.327 264.433 480 479.565 480 16.425 0 40.261-14.872 62.205-38.812 23.127-25.229 33.629-48.383 33.793-56.986-1.039-6.080-17.856-29.727-63.895-65.177-39.576-30.476-71.687-46.804-79.938-47.023-0.578 0.171-4.16 1.542-11.423 10.764-6.315 8.020-13.070 19.011-19.604 29.64-17.927 29.166-34.859 56.715-59.451 56.715-3.96 0-7.873-0.762-11.63-2.265-83.985-33.594-183.319-132.928-216.913-216.913-4.035-10.086-4.678-25.884 15.17-43.865 10.551-9.558 25.156-18.535 39.28-27.216 10.629-6.533 21.619-13.288 29.639-19.604 9.222-7.262 10.594-10.845 10.764-11.423-0.22-8.252-16.547-40.362-47.023-79.939-35.45-46.037-59.096-62.855-65.176-63.894z"></path>
</svg>
