<svg width="70" height="70" viewBox="0 0 70 70" fill="none" xmlns="http://www.w3.org/2000/svg">
<g filter="url(#filter0_d)">
<path d="M35 1C18.4274 1 5 14.4274 5 31C5 47.5726 18.4274 61 35 61C51.5726 61 65 47.5726 65 31C65 14.4274 51.5726 1 35 1ZM49.0323 36.3226H35V44.8992C35 46.1936 33.4274 46.8468 32.5202 45.9274L18.6936 32.0282C18.125 31.4597 18.125 30.5524 18.6936 29.9839L32.5202 16.0726C33.4395 15.1532 35 15.8065 35 17.1008V25.6774H49.0323C49.8306 25.6774 50.4839 26.3306 50.4839 27.129V34.871C50.4839 35.6694 49.8306 36.3226 49.0323 36.3226Z" fill="#16181A"/>
<path d="M34.5 36.3226V35.8226H35H49.0323C49.5545 35.8226 49.9839 35.3932 49.9839 34.871V27.129C49.9839 26.6068 49.5545 26.1774 49.0323 26.1774H35H34.5V25.6774V17.1008C34.5 16.2491 33.4762 15.8239 32.8739 16.426C32.8738 16.426 32.8738 16.4261 32.8737 16.4261L19.0482 30.3363L19.0471 30.3374C18.6738 30.7107 18.6738 31.3014 19.0471 31.6747L19.048 31.6756L32.8746 45.5748L32.876 45.5762C33.4645 46.1725 34.5 45.7534 34.5 44.8992V36.3226ZM4.5 31C4.5 14.1513 18.1513 0.5 35 0.5C51.8487 0.5 65.5 14.1513 65.5 31C65.5 47.8487 51.8487 61.5 35 61.5C18.1513 61.5 4.5 47.8487 4.5 31Z" stroke="black"/>
</g>
<defs>
<filter id="filter0_d" x="0" y="0" width="70" height="70" filterUnits="userSpaceOnUse" color-interpolation-filters="sRGB">
<feFlood flood-opacity="0" result="BackgroundImageFix"/>
<feColorMatrix in="SourceAlpha" type="matrix" values="0 0 0 0 0 0 0 0 0 0 0 0 0 0 0 0 0 0 127 0"/>
<feOffset dy="4"/>
<feGaussianBlur stdDeviation="2"/>
<feColorMatrix type="matrix" values="0 0 0 0 0 0 0 0 0 0 0 0 0 0 0 0 0 0 0.25 0"/>
<feBlend mode="normal" in2="BackgroundImageFix" result="effect1_dropShadow"/>
<feBlend mode="normal" in="SourceGraphic" in2="effect1_dropShadow" result="shape"/>
</filter>
</defs>
</svg>
